<svg width="19" height="13" viewBox="0 0 19 13" fill="none" xmlns="http://www.w3.org/2000/svg">
<path d="M8.79688 0.625V12H7.28125L1.55469 3.22656V12H0.046875V0.625H1.55469L7.30469 9.42188V0.625H8.79688ZM10.8672 7.86719V7.6875C10.8672 7.07812 10.9557 6.51302 11.1328 5.99219C11.3099 5.46615 11.5651 5.01042 11.8984 4.625C12.2318 4.23438 12.6354 3.93229 13.1094 3.71875C13.5833 3.5 14.1146 3.39062 14.7031 3.39062C15.2969 3.39062 15.8307 3.5 16.3047 3.71875C16.7839 3.93229 17.1901 4.23438 17.5234 4.625C17.862 5.01042 18.1198 5.46615 18.2969 5.99219C18.474 6.51302 18.5625 7.07812 18.5625 7.6875V7.86719C18.5625 8.47656 18.474 9.04167 18.2969 9.5625C18.1198 10.0833 17.862 10.5391 17.5234 10.9297C17.1901 11.3151 16.7865 11.6172 16.3125 11.8359C15.8438 12.0495 15.3125 12.1562 14.7188 12.1562C14.125 12.1562 13.5911 12.0495 13.1172 11.8359C12.6432 11.6172 12.237 11.3151 11.8984 10.9297C11.5651 10.5391 11.3099 10.0833 11.1328 9.5625C10.9557 9.04167 10.8672 8.47656 10.8672 7.86719ZM12.3125 7.6875V7.86719C12.3125 8.28906 12.362 8.6875 12.4609 9.0625C12.5599 9.43229 12.7083 9.76042 12.9062 10.0469C13.1094 10.3333 13.362 10.5599 13.6641 10.7266C13.9661 10.888 14.3177 10.9688 14.7188 10.9688C15.1146 10.9688 15.4609 10.888 15.7578 10.7266C16.0599 10.5599 16.3099 10.3333 16.5078 10.0469C16.7057 9.76042 16.8542 9.43229 16.9531 9.0625C17.0573 8.6875 17.1094 8.28906 17.1094 7.86719V7.6875C17.1094 7.27083 17.0573 6.8776 16.9531 6.50781C16.8542 6.13281 16.7031 5.80208 16.5 5.51562C16.3021 5.22396 16.0521 4.99479 15.75 4.82812C15.4531 4.66146 15.1042 4.57812 14.7031 4.57812C14.3073 4.57812 13.9583 4.66146 13.6562 4.82812C13.3594 4.99479 13.1094 5.22396 12.9062 5.51562C12.7083 5.80208 12.5599 6.13281 12.4609 6.50781C12.362 6.8776 12.3125 7.27083 12.3125 7.6875Z" fill="#fff"/>
</svg>
