<svg width="13" height="13" viewBox="0 0 13 13" fill="none" xmlns="http://www.w3.org/2000/svg">
<path d="M7.6875 9.125C7.6875 8.85938 7.64583 8.625 7.5625 8.42188C7.48438 8.21354 7.34375 8.02604 7.14062 7.85938C6.94271 7.69271 6.66667 7.53385 6.3125 7.38281C5.96354 7.23177 5.52083 7.07812 4.98438 6.92188C4.42188 6.75521 3.91406 6.57031 3.46094 6.36719C3.00781 6.15885 2.61979 5.92188 2.29688 5.65625C1.97396 5.39062 1.72656 5.08594 1.55469 4.74219C1.38281 4.39844 1.29688 4.00521 1.29688 3.5625C1.29688 3.11979 1.38802 2.71094 1.57031 2.33594C1.7526 1.96094 2.01302 1.63542 2.35156 1.35938C2.69531 1.07812 3.10417 0.859375 3.57812 0.703125C4.05208 0.546875 4.58073 0.46875 5.16406 0.46875C6.01823 0.46875 6.74219 0.632812 7.33594 0.960938C7.9349 1.28385 8.39062 1.70833 8.70312 2.23438C9.01562 2.75521 9.17188 3.3125 9.17188 3.90625H7.67188C7.67188 3.47917 7.58073 3.10156 7.39844 2.77344C7.21615 2.4401 6.9401 2.17969 6.57031 1.99219C6.20052 1.79948 5.73177 1.70312 5.16406 1.70312C4.6276 1.70312 4.1849 1.78385 3.83594 1.94531C3.48698 2.10677 3.22656 2.32552 3.05469 2.60156C2.88802 2.8776 2.80469 3.19271 2.80469 3.54688C2.80469 3.78646 2.85417 4.00521 2.95312 4.20312C3.05729 4.39583 3.21615 4.57552 3.42969 4.74219C3.64844 4.90885 3.92448 5.0625 4.25781 5.20312C4.59635 5.34375 5 5.47917 5.46875 5.60938C6.11458 5.79167 6.67188 5.99479 7.14062 6.21875C7.60938 6.44271 7.99479 6.69531 8.29688 6.97656C8.60417 7.2526 8.83073 7.56771 8.97656 7.92188C9.1276 8.27083 9.20312 8.66667 9.20312 9.10938C9.20312 9.57292 9.10938 9.99219 8.92188 10.3672C8.73438 10.7422 8.46615 11.0625 8.11719 11.3281C7.76823 11.5938 7.34896 11.7995 6.85938 11.9453C6.375 12.0859 5.83333 12.1562 5.23438 12.1562C4.70833 12.1562 4.1901 12.0833 3.67969 11.9375C3.17448 11.7917 2.71354 11.5729 2.29688 11.2812C1.88542 10.9896 1.55469 10.6302 1.30469 10.2031C1.0599 9.77083 0.9375 9.27083 0.9375 8.70312H2.4375C2.4375 9.09375 2.51302 9.42969 2.66406 9.71094C2.8151 9.98698 3.02083 10.2161 3.28125 10.3984C3.54688 10.5807 3.84635 10.7161 4.17969 10.8047C4.51823 10.888 4.86979 10.9297 5.23438 10.9297C5.76042 10.9297 6.20573 10.8568 6.57031 10.7109C6.9349 10.5651 7.21094 10.3568 7.39844 10.0859C7.59115 9.8151 7.6875 9.49479 7.6875 9.125ZM12.4766 3.54688V12H11.0234V3.54688H12.4766ZM10.9141 1.30469C10.9141 1.07031 10.9844 0.872396 11.125 0.710938C11.2708 0.549479 11.4844 0.46875 11.7656 0.46875C12.0417 0.46875 12.2526 0.549479 12.3984 0.710938C12.5495 0.872396 12.625 1.07031 12.625 1.30469C12.625 1.52865 12.5495 1.72135 12.3984 1.88281C12.2526 2.03906 12.0417 2.11719 11.7656 2.11719C11.4844 2.11719 11.2708 2.03906 11.125 1.88281C10.9844 1.72135 10.9141 1.52865 10.9141 1.30469Z" fill="white"/>
</svg>
