<svg width="32" height="32" viewBox="0 0 32 32" fill="none" xmlns="http://www.w3.org/2000/svg">
<circle cx="16" cy="16" r="16" fill="#9FD0FD"/>
<path d="M21.3337 22V20.6667C21.3337 19.9594 21.0527 19.2811 20.5526 18.781C20.0525 18.281 19.3742 18 18.667 18H13.3337C12.6264 18 11.9481 18.281 11.448 18.781C10.9479 19.2811 10.667 19.9594 10.667 20.6667V22" stroke="black" stroke-width="1.33333" stroke-linecap="round" stroke-linejoin="round"/>
<path d="M15.9997 15.3333C17.4724 15.3333 18.6663 14.1394 18.6663 12.6667C18.6663 11.1939 17.4724 10 15.9997 10C14.5269 10 13.333 11.1939 13.333 12.6667C13.333 14.1394 14.5269 15.3333 15.9997 15.3333Z" stroke="black" stroke-width="1.33333" stroke-linecap="round" stroke-linejoin="round"/>
</svg>
