<svg width="78" height="96" viewBox="0 0 78 96" fill="none" xmlns="http://www.w3.org/2000/svg">
<g clip-path="url(#clip0_351_25715)">
<path d="M59.1951 96.3962H5.23746C3.7914 96.3945 2.40503 95.8194 1.38252 94.7968C0.360001 93.7743 -0.215163 92.3879 -0.216797 90.9419V19.4958C-0.215163 18.0497 0.360005 16.6634 1.38252 15.6408C2.40504 14.6183 3.7914 14.0431 5.23746 14.0415H59.1951C60.6412 14.0431 62.0275 14.6183 63.0501 15.6408C64.0726 16.6634 64.6478 18.0497 64.6494 19.4958V90.9419C64.6478 92.3879 64.0726 93.7743 63.0501 94.7968C62.0275 95.8194 60.6412 96.3945 59.1951 96.3962Z" fill="#E6E6E6"/>
<path d="M38.6015 91.9738H9.03071C7.71402 91.9723 6.45169 91.4485 5.52066 90.5174C4.58963 89.5864 4.06593 88.3241 4.06445 87.0074V23.4301C4.06594 22.1134 4.58964 20.8511 5.52068 19.9201C6.45171 18.9891 7.71403 18.4654 9.03071 18.4639H55.4027C56.7194 18.4654 57.9817 18.9891 58.9128 19.9201C59.8438 20.8511 60.3675 22.1134 60.369 23.4301V70.2063C60.3625 75.9774 58.067 81.5102 53.9862 85.591C49.9054 89.6718 44.3726 91.9672 38.6015 91.9738Z" fill="white"/>
<path d="M50.7776 30.6697H13.6574C13.4985 30.6699 13.341 30.6388 13.194 30.5782C13.0471 30.5175 12.9135 30.4285 12.801 30.3162C12.6884 30.204 12.5991 30.0706 12.538 29.9238C12.477 29.777 12.4455 29.6196 12.4453 29.4607C12.4451 29.3017 12.4762 29.1442 12.5369 28.9973C12.5975 28.8503 12.6865 28.7167 12.7988 28.6042C12.9111 28.4916 13.0444 28.4023 13.1912 28.3413C13.338 28.2802 13.4954 28.2487 13.6544 28.2485H50.7776C51.0987 28.2481 51.4068 28.3753 51.6341 28.602C51.8614 28.8288 51.9893 29.1366 51.9897 29.4576C51.9901 29.7787 51.863 30.0868 51.6362 30.3141C51.4095 30.5414 51.1017 30.6693 50.7806 30.6697H50.7776Z" fill="#0087FF"/>
<path d="M50.7762 35.4536H13.656C13.3349 35.4536 13.027 35.326 12.7999 35.099C12.5729 34.8719 12.4453 34.564 12.4453 34.2429C12.4453 33.9218 12.5729 33.6139 12.7999 33.3868C13.027 33.1598 13.3349 33.0322 13.656 33.0322H50.7762C51.0973 33.0322 51.4052 33.1598 51.6322 33.3868C51.8593 33.6139 51.9868 33.9218 51.9868 34.2429C51.9868 34.564 51.8593 34.8719 51.6322 35.099C51.4052 35.326 51.0973 35.4536 50.7762 35.4536Z" fill="#0087FF"/>
<path d="M29.7467 40.2373H13.656C13.3349 40.2373 13.027 40.1097 12.7999 39.8827C12.5729 39.6556 12.4453 39.3477 12.4453 39.0266C12.4453 38.7055 12.5729 38.3976 12.7999 38.1705C13.027 37.9435 13.3349 37.8159 13.656 37.8159H29.7467C30.0678 37.8159 30.3757 37.9435 30.6028 38.1705C30.8298 38.3976 30.9574 38.7055 30.9574 39.0266C30.9574 39.3477 30.8298 39.6556 30.6028 39.8827C30.3757 40.1097 30.0678 40.2373 29.7467 40.2373Z" fill="#0087FF"/>
<path d="M50.7776 50.2562H13.6574C13.3364 50.2566 13.0283 50.1294 12.801 49.9027C12.5736 49.6759 12.4457 49.3682 12.4453 49.0471C12.4449 48.726 12.5721 48.4179 12.7988 48.1906C13.0256 47.9633 13.3333 47.8354 13.6544 47.835H50.7776C51.0987 47.8346 51.4068 47.9617 51.6341 48.1885C51.8614 48.4152 51.9893 48.723 51.9897 49.0441C51.9901 49.3651 51.863 49.6732 51.6362 49.9005C51.4095 50.1278 51.1017 50.2558 50.7806 50.2562H50.7776Z" fill="#E4E4E4"/>
<path d="M50.7762 55.0395H13.656C13.3349 55.0395 13.027 54.912 12.7999 54.6849C12.5729 54.4579 12.4453 54.1499 12.4453 53.8288C12.4453 53.5077 12.5729 53.1998 12.7999 52.9728C13.027 52.7457 13.3349 52.6182 13.656 52.6182H50.7762C51.0973 52.6182 51.4052 52.7457 51.6322 52.9728C51.8593 53.1998 51.9868 53.5077 51.9868 53.8288C51.9868 54.1499 51.8593 54.4579 51.6322 54.6849C51.4052 54.912 51.0973 55.0395 50.7762 55.0395Z" fill="#E4E4E4"/>
<path d="M29.7467 59.8237H13.656C13.3349 59.8237 13.027 59.6961 12.7999 59.4691C12.5729 59.242 12.4453 58.9341 12.4453 58.613C12.4453 58.2919 12.5729 57.984 12.7999 57.7569C13.027 57.5299 13.3349 57.4023 13.656 57.4023H29.7467C30.0678 57.4023 30.3757 57.5299 30.6028 57.7569C30.8298 57.984 30.9574 58.2919 30.9574 58.613C30.9574 58.9341 30.8298 59.242 30.6028 59.4691C30.3757 59.6961 30.0678 59.8237 29.7467 59.8237Z" fill="#E4E4E4"/>
<path d="M50.7776 69.8426H13.6574C13.3364 69.843 13.0283 69.7158 12.801 69.4891C12.5736 69.2623 12.4457 68.9546 12.4453 68.6335C12.4449 68.3124 12.5721 68.0043 12.7988 67.777C13.0256 67.5497 13.3333 67.4218 13.6544 67.4214H50.7776C51.0987 67.421 51.4068 67.5481 51.6341 67.7749C51.8614 68.0016 51.9893 68.3094 51.9897 68.6305C51.9901 68.9516 51.863 69.2596 51.6362 69.4869C51.4095 69.7143 51.1017 69.8422 50.7806 69.8426H50.7776Z" fill="#E4E4E4"/>
<path d="M50.7762 74.6259H13.656C13.3349 74.6259 13.027 74.4984 12.7999 74.2713C12.5729 74.0443 12.4453 73.7363 12.4453 73.4153C12.4453 73.0942 12.5729 72.7862 12.7999 72.5592C13.027 72.3321 13.3349 72.2046 13.656 72.2046H50.7762C51.0973 72.2046 51.4052 72.3321 51.6322 72.5592C51.8593 72.7862 51.9868 73.0942 51.9868 73.4153C51.9868 73.7363 51.8593 74.0443 51.6322 74.2713C51.4052 74.4984 51.0973 74.6259 50.7762 74.6259Z" fill="#E4E4E4"/>
<path d="M29.7483 79.4096H13.6576C13.3369 79.409 13.0295 79.2812 12.803 79.0542C12.5765 78.8272 12.4492 78.5196 12.4492 78.199C12.4492 77.8783 12.5765 77.5707 12.803 77.3437C13.0295 77.1167 13.3369 76.9889 13.6576 76.9883H29.7483C30.069 76.9889 30.3763 77.1167 30.6029 77.3437C30.8294 77.5707 30.9566 77.8783 30.9566 78.199C30.9566 78.5196 30.8294 78.8272 30.6029 79.0542C30.3763 79.2812 30.069 79.409 29.7483 79.4096Z" fill="#E4E4E4"/>
<path d="M61.9846 31.1694C70.6767 31.1694 77.7231 24.123 77.7231 15.4309C77.7231 6.73875 70.6767 -0.307617 61.9846 -0.307617C53.2925 -0.307617 46.2461 6.73875 46.2461 15.4309C46.2461 24.123 53.2925 31.1694 61.9846 31.1694Z" fill="#0087FF"/>
<path d="M61.9828 23.1221C61.4602 23.1215 60.9592 22.9137 60.5897 22.5442C60.2202 22.1747 60.0123 21.6737 60.0117 21.1511V9.74651C60.0114 9.4875 60.0622 9.23098 60.1612 8.99161C60.2601 8.75224 60.4052 8.53471 60.5883 8.35146C60.7713 8.16822 60.9887 8.02285 61.228 7.92367C61.4672 7.82449 61.7237 7.77344 61.9827 7.77344C62.2417 7.77344 62.4982 7.82449 62.7375 7.92367C62.9767 8.02285 63.1941 8.16822 63.3771 8.35146C63.5602 8.53471 63.7053 8.75224 63.8043 8.99161C63.9032 9.23098 63.954 9.4875 63.9537 9.74651V21.1511C63.9531 21.6737 63.7453 22.1746 63.3758 22.5442C63.0063 22.9137 62.5053 23.1215 61.9828 23.1221Z" fill="white"/>
<path d="M54.3105 15.4491C54.3112 14.9265 54.519 14.4255 54.8885 14.056C55.258 13.6865 55.759 13.4786 56.2816 13.478H67.6862C67.9452 13.4778 68.2017 13.5285 68.4411 13.6275C68.6805 13.7264 68.898 13.8715 69.0812 14.0546C69.2645 14.2376 69.4098 14.455 69.509 14.6943C69.6082 14.9335 69.6593 15.19 69.6593 15.449C69.6593 15.708 69.6082 15.9645 69.509 16.2038C69.4098 16.443 69.2645 16.6604 69.0812 16.8434C68.898 17.0265 68.6805 17.1716 68.4411 17.2706C68.2017 17.3695 67.9452 17.4203 67.6862 17.42H56.2816C55.759 17.4194 55.258 17.2116 54.8885 16.8421C54.519 16.4726 54.3112 15.9716 54.3105 15.4491Z" fill="white"/>
</g>
<defs>
<clipPath id="clip0_351_25715">
<rect width="77" height="96" fill="#565656" transform="translate(0.5)"/>
</clipPath>
</defs>
</svg>
