<svg width="96" height="87" viewBox="0 0 96 87" fill="none" xmlns="http://www.w3.org/2000/svg">
<path d="M49.1645 0.187966L46.0408 0.992651L7.55659 10.9066L4.43292 11.7112C2.91672 12.1037 1.61826 13.0808 0.8224 14.4284C0.026537 15.776 -0.201731 17.3839 0.187675 18.8993L13.7326 71.3684C14.1254 72.883 15.1036 74.1801 16.4526 74.9752C17.8016 75.7702 19.4112 75.9982 20.9282 75.6092L20.9363 75.6071L65.6517 64.088L65.6598 64.0859C67.176 63.6935 68.4745 62.7164 69.2703 61.3688C70.0662 60.0212 70.2945 58.4133 69.9051 56.8979L56.3601 4.42878C55.9673 2.91418 54.9891 1.61707 53.6401 0.822038C52.2912 0.027004 50.6816 -0.20103 49.1645 0.187966Z" fill="#F2F2F2"/>
<path d="M49.5902 1.83279L45.8904 2.78589L8.55825 12.403L4.85853 13.3561C3.77882 13.6355 2.85415 14.3314 2.28739 15.291C1.72063 16.2507 1.55808 17.3957 1.83538 18.4749L15.3803 70.944C15.66 72.0225 16.3566 72.9462 17.3173 73.5124C18.2779 74.0786 19.4241 74.2409 20.5045 73.9639L20.5126 73.9618L65.228 62.4427L65.2361 62.4406C66.3158 62.1612 67.2405 61.4653 67.8072 60.5057C68.374 59.5461 68.5365 58.401 68.2592 57.3218L54.7143 4.85278C54.4346 3.7742 53.738 2.85051 52.7774 2.28435C51.8167 1.71818 50.6705 1.55579 49.5902 1.83279Z" fill="white"/>
<path d="M46.7952 18.8238L24.1747 24.651C23.9221 24.7161 23.6539 24.6783 23.4292 24.5458C23.2045 24.4134 23.0416 24.1972 22.9765 23.9448C22.9113 23.6924 22.9492 23.4245 23.0818 23.2001C23.2144 22.9756 23.4308 22.8129 23.6834 22.7478L46.3039 16.9206C46.5565 16.8557 46.8245 16.8937 47.049 17.0262C47.2735 17.1587 47.4362 17.3748 47.5013 17.627C47.5664 17.8792 47.5287 18.147 47.3962 18.3714C47.2638 18.5958 47.0477 18.7585 46.7952 18.8238Z" fill="#F2F2F2"/>
<path d="M51.5548 21.0227L25.0048 27.8623C24.7522 27.9273 24.484 27.8895 24.2593 27.7571C24.0346 27.6246 23.8717 27.4084 23.8066 27.156C23.7414 26.9037 23.7793 26.6358 23.9119 26.4113C24.0444 26.1868 24.2609 26.0241 24.5135 25.959L51.0635 19.1195C51.3161 19.0544 51.5843 19.0923 51.809 19.2247C52.0338 19.3571 52.1966 19.5733 52.2618 19.8257C52.3269 20.0781 52.289 20.346 52.1565 20.5705C52.0239 20.795 51.8075 20.9576 51.5548 21.0227Z" fill="#F2F2F2"/>
<path d="M50.512 33.2166L27.8915 39.0438C27.7664 39.0761 27.6362 39.0833 27.5083 39.0653C27.3804 39.0472 27.2573 39.0042 27.146 38.9386C27.0347 38.8731 26.9375 38.7862 26.8598 38.6831C26.7821 38.58 26.7255 38.4626 26.6933 38.3376C26.661 38.2126 26.6537 38.0826 26.6718 37.9548C26.6898 37.827 26.7329 37.704 26.7986 37.5928C26.8642 37.4817 26.9511 37.3845 27.0544 37.307C27.1576 37.2294 27.2751 37.1728 27.4002 37.1406L50.0207 31.3134C50.1458 31.2811 50.276 31.2738 50.4039 31.2919C50.5318 31.3099 50.655 31.353 50.7662 31.4186C50.8775 31.4841 50.9747 31.571 51.0524 31.6741C51.1301 31.7772 51.1867 31.8946 51.2189 32.0196C51.2512 32.1445 51.2585 32.2746 51.2404 32.4024C51.2224 32.5302 51.1793 32.6532 51.1136 32.7643C51.048 32.8755 50.9611 32.9726 50.8578 33.0502C50.7546 33.1278 50.6371 33.1844 50.512 33.2166Z" fill="#F2F2F2"/>
<path d="M55.2696 35.4158L28.7197 42.2553C28.5946 42.2876 28.4643 42.2949 28.3364 42.2768C28.2085 42.2588 28.0854 42.2157 27.9741 42.1501C27.8628 42.0846 27.7656 41.9977 27.6879 41.8946C27.6102 41.7915 27.5537 41.6741 27.5214 41.5491C27.4891 41.4242 27.4818 41.2941 27.4999 41.1663C27.518 41.0385 27.5611 40.9155 27.6267 40.8044C27.6924 40.6932 27.7793 40.5961 27.8825 40.5185C27.9857 40.4409 28.1032 40.3843 28.2283 40.3521L54.7783 33.5126C55.031 33.4475 55.2992 33.4853 55.5239 33.6178C55.7486 33.7502 55.9114 33.9664 55.9766 34.2188C56.0417 34.4712 56.0039 34.7391 55.8713 34.9636C55.7387 35.188 55.5223 35.3507 55.2696 35.4158Z" fill="#F2F2F2"/>
<path d="M54.2262 47.6096L31.6057 53.4369C31.3532 53.5018 31.0851 53.4638 30.8605 53.3314C30.636 53.1989 30.4732 52.9828 30.4081 52.7305C30.343 52.4782 30.3808 52.2105 30.5133 51.986C30.6457 51.7616 30.8619 51.5989 31.1144 51.5337L53.7349 45.7064C53.9875 45.6413 54.2557 45.6792 54.4804 45.8116C54.7051 45.9441 54.868 46.1603 54.9331 46.4126C54.9983 46.665 54.9604 46.9329 54.8278 47.1574C54.6953 47.3819 54.4788 47.5446 54.2262 47.6096Z" fill="#F2F2F2"/>
<path d="M58.9853 49.8094L32.4354 56.6489C32.3102 56.6812 32.1799 56.6886 32.0519 56.6707C31.9239 56.6527 31.8007 56.6097 31.6893 56.5441C31.578 56.4786 31.4806 56.3917 31.4029 56.2886C31.3252 56.1854 31.2685 56.0679 31.2362 55.9429C31.204 55.8178 31.1967 55.6877 31.2148 55.5598C31.2329 55.432 31.276 55.3089 31.3418 55.1977C31.4075 55.0866 31.4945 54.9894 31.5979 54.9118C31.7012 54.8343 31.8188 54.7778 31.944 54.7457L58.494 47.9061C58.7467 47.8411 59.0149 47.8789 59.2396 48.0113C59.4643 48.1438 59.6271 48.36 59.6923 48.6123C59.7575 48.8647 59.7196 49.1326 59.587 49.3571C59.4544 49.5816 59.238 49.7443 58.9853 49.8094Z" fill="#F2F2F2"/>
<path d="M20.313 30.6257L12.3078 32.6879C12.1867 32.719 12.0582 32.7008 11.9505 32.6373C11.8427 32.5738 11.7646 32.4703 11.7333 32.3493L9.89569 25.2311C9.86459 25.1101 9.88282 24.9817 9.94637 24.8741C10.0099 24.7665 10.1136 24.6884 10.2347 24.6571L18.2398 22.5949C18.361 22.5638 18.4895 22.582 18.5972 22.6455C18.7049 22.709 18.783 22.8126 18.8144 22.9335L20.652 30.0518C20.6831 30.1728 20.6649 30.3012 20.6013 30.4088C20.5378 30.5164 20.4341 30.5944 20.313 30.6257Z" fill="#E6E6E6"/>
<path d="M24.0298 45.0188L16.0246 47.081C15.9035 47.1121 15.775 47.0939 15.6673 47.0304C15.5595 46.9669 15.4814 46.8633 15.4501 46.7424L13.6125 39.6241C13.5814 39.5031 13.5996 39.3747 13.6632 39.2671C13.7267 39.1595 13.8304 39.0815 13.9515 39.0502L21.9566 36.988C22.0778 36.9569 22.2063 36.9751 22.314 37.0386C22.4217 37.1021 22.4998 37.2056 22.5312 37.3266L24.3688 44.4448C24.3999 44.5658 24.3816 44.6942 24.3181 44.8018C24.2545 44.9094 24.1509 44.9875 24.0298 45.0188Z" fill="#E6E6E6"/>
<path d="M27.7446 59.4119L19.7395 61.4741C19.6183 61.5051 19.4898 61.4869 19.3821 61.4234C19.2744 61.36 19.1963 61.2564 19.1649 61.1354L17.3273 54.0172C17.2962 53.8962 17.3145 53.7678 17.378 53.6602C17.4416 53.5526 17.5452 53.4746 17.6663 53.4432L25.6715 51.381C25.7926 51.35 25.9211 51.3682 26.0289 51.4317C26.1366 51.4951 26.2147 51.5987 26.246 51.7197L28.0836 58.8379C28.1147 58.9589 28.0965 59.0873 28.0329 59.1949C27.9694 59.3025 27.8657 59.3805 27.7446 59.4119Z" fill="#E6E6E6"/>
<path d="M80.3624 13.4878H34.1674C32.6011 13.4896 31.0995 14.1119 29.992 15.2182C28.8845 16.3246 28.2615 17.8246 28.2598 19.3892V73.5748C28.2615 75.1394 28.8845 76.6394 29.992 77.7458C31.0995 78.8521 32.6011 79.4745 34.1674 79.4762H80.3624C81.9287 79.4745 83.4302 78.8521 84.5378 77.7458C85.6453 76.6394 86.2682 75.1394 86.27 73.5748V19.3892C86.2682 17.8246 85.6453 16.3246 84.5378 15.2182C83.4302 14.1119 81.9287 13.4896 80.3624 13.4878Z" fill="#E6E6E6"/>
<path d="M80.363 15.187H34.1679C33.0525 15.1883 31.9832 15.6314 31.1945 16.4193C30.4058 17.2071 29.9622 18.2753 29.9609 19.3895V73.5752C29.9622 74.6894 30.4058 75.7576 31.1945 76.5454C31.9832 77.3333 33.0525 77.7765 34.1679 77.7777H80.363C81.4784 77.7764 82.5477 77.3333 83.3363 76.5454C84.125 75.7576 84.5686 74.6894 84.5699 73.5752V19.3895C84.5686 18.2753 84.125 17.2072 83.3363 16.4193C82.5477 15.6314 81.4784 15.1883 80.363 15.187Z" fill="white"/>
<path d="M73.4098 44.9616H50.0493C49.92 44.9617 49.792 44.9364 49.6725 44.8871C49.553 44.8378 49.4445 44.7654 49.353 44.6741C49.2615 44.5829 49.189 44.4745 49.1394 44.3552C49.0899 44.2359 49.0645 44.108 49.0645 43.9788C49.0645 43.8497 49.0899 43.7218 49.1394 43.6025C49.189 43.4832 49.2615 43.3748 49.353 43.2835C49.4445 43.1923 49.553 43.1199 49.6725 43.0706C49.792 43.0213 49.92 42.996 50.0493 42.9961H73.4098C73.6706 42.9964 73.9205 43.1001 74.1048 43.2843C74.289 43.4686 74.3925 43.7184 74.3925 43.9788C74.3925 44.2393 74.289 44.4891 74.1048 44.6734C73.9205 44.8576 73.6706 44.9613 73.4098 44.9616Z" fill="#E6E6E6"/>
<path d="M77.4679 48.2785H50.0493C49.92 48.2786 49.792 48.2533 49.6725 48.204C49.553 48.1547 49.4445 48.0823 49.353 47.991C49.2615 47.8998 49.189 47.7914 49.1394 47.6721C49.0899 47.5528 49.0645 47.4249 49.0645 47.2957C49.0645 47.1666 49.0899 47.0387 49.1394 46.9194C49.189 46.8001 49.2615 46.6917 49.353 46.6004C49.4445 46.5092 49.553 46.4368 49.6725 46.3875C49.792 46.3382 49.92 46.3128 50.0493 46.313H77.4679C77.7288 46.313 77.979 46.4165 78.1635 46.6008C78.348 46.7851 78.4517 47.0351 78.4517 47.2957C78.4517 47.5564 78.348 47.8063 78.1635 47.9906C77.979 48.1749 77.7288 48.2785 77.4679 48.2785Z" fill="#E6E6E6"/>
<path d="M73.4098 59.8258H50.0493C49.92 59.826 49.792 59.8007 49.6725 59.7513C49.553 59.702 49.4445 59.6297 49.353 59.5384C49.2615 59.4471 49.189 59.3387 49.1394 59.2194C49.0899 59.1001 49.0645 58.9722 49.0645 58.8431C49.0645 58.7139 49.0899 58.5861 49.1394 58.4668C49.189 58.3475 49.2615 58.2391 49.353 58.1478C49.4445 58.0565 49.553 57.9842 49.6725 57.9348C49.792 57.8855 49.92 57.8602 50.0493 57.8604H73.4098C73.6708 57.8604 73.921 57.9639 74.1055 58.1482C74.29 58.3325 74.3936 58.5825 74.3936 58.8431C74.3936 59.1037 74.29 59.3537 74.1055 59.538C73.921 59.7223 73.6708 59.8258 73.4098 59.8258Z" fill="#E6E6E6"/>
<path d="M77.4679 63.1422H50.0493C49.92 63.1424 49.792 63.1171 49.6725 63.0678C49.553 63.0184 49.4445 62.9461 49.353 62.8548C49.2615 62.7635 49.189 62.6551 49.1394 62.5358C49.0899 62.4165 49.0645 62.2887 49.0645 62.1595C49.0645 62.0304 49.0899 61.9025 49.1394 61.7832C49.189 61.6639 49.2615 61.5555 49.353 61.4642C49.4445 61.3729 49.553 61.3006 49.6725 61.2513C49.792 61.2019 49.92 61.1766 50.0493 61.1768H77.4679C77.5972 61.1766 77.7252 61.2019 77.8447 61.2513C77.9642 61.3006 78.0728 61.3729 78.1642 61.4642C78.2557 61.5555 78.3283 61.6639 78.3778 61.7832C78.4273 61.9025 78.4528 62.0304 78.4528 62.1595C78.4528 62.2887 78.4273 62.4165 78.3778 62.5358C78.3283 62.6551 78.2557 62.7635 78.1642 62.8548C78.0728 62.9461 77.9642 63.0184 77.8447 63.0678C77.7252 63.1171 77.5972 63.1424 77.4679 63.1422Z" fill="#E6E6E6"/>
<path d="M44.8169 49.7843H36.5498C36.4248 49.7842 36.3049 49.7345 36.2164 49.6461C36.128 49.5578 36.0783 49.438 36.0781 49.3131V41.9619C36.0783 41.837 36.128 41.7172 36.2164 41.6289C36.3049 41.5405 36.4248 41.4909 36.5498 41.4907H44.8169C44.942 41.4909 45.0619 41.5405 45.1503 41.6289C45.2388 41.7172 45.2885 41.837 45.2886 41.9619V49.3131C45.2885 49.438 45.2388 49.5578 45.1503 49.6461C45.0619 49.7345 44.942 49.7842 44.8169 49.7843Z" fill="#E6E6E6"/>
<path d="M44.8169 64.6481H36.5498C36.4248 64.6479 36.3049 64.5982 36.2164 64.5099C36.128 64.4216 36.0783 64.3018 36.0781 64.1768V56.8257C36.0783 56.7008 36.128 56.581 36.2164 56.4927C36.3049 56.4043 36.4248 56.3546 36.5498 56.3545H44.8169C44.942 56.3546 45.0619 56.4043 45.1503 56.4927C45.2388 56.581 45.2885 56.7008 45.2886 56.8257V64.1768C45.2885 64.3018 45.2388 64.4216 45.1503 64.5099C45.0619 64.5982 44.942 64.6479 44.8169 64.6481Z" fill="#E6E6E6"/>
<path d="M73.437 28.4152H56.2142C55.9533 28.4152 55.7031 28.3117 55.5186 28.1274C55.3341 27.9431 55.2305 27.6931 55.2305 27.4324C55.2305 27.1718 55.3341 26.9218 55.5186 26.7375C55.7031 26.5532 55.9533 26.4497 56.2142 26.4497H73.437C73.6979 26.4497 73.9481 26.5532 74.1326 26.7375C74.3171 26.9218 74.4208 27.1718 74.4208 27.4324C74.4208 27.6931 74.3171 27.9431 74.1326 28.1274C73.9481 28.3117 73.6979 28.4152 73.437 28.4152Z" fill="#CCCCCC"/>
<path d="M77.4951 31.7321H56.2142C56.085 31.7321 55.9571 31.7067 55.8378 31.6573C55.7184 31.6079 55.61 31.5355 55.5186 31.4442C55.4273 31.353 55.3548 31.2447 55.3054 31.1254C55.2559 31.0062 55.2305 30.8784 55.2305 30.7493C55.2305 30.6203 55.2559 30.4925 55.3054 30.3733C55.3548 30.254 55.4273 30.1457 55.5186 30.0544C55.61 29.9632 55.7184 29.8908 55.8378 29.8414C55.9571 29.792 56.085 29.7666 56.2142 29.7666H77.4951C77.756 29.7666 78.0062 29.8701 78.1907 30.0544C78.3752 30.2387 78.4788 30.4887 78.4788 30.7493C78.4788 31.01 78.3752 31.2599 78.1907 31.4442C78.0062 31.6285 77.756 31.7321 77.4951 31.7321Z" fill="#CCCCCC"/>
<path d="M52.4023 35.7514H36.5245C36.3994 35.7513 36.2795 35.7016 36.1911 35.6133C36.1026 35.5249 36.0529 35.4051 36.0527 35.2802V22.9014C36.0529 22.7765 36.1026 22.6567 36.1911 22.5683C36.2795 22.48 36.3994 22.4303 36.5245 22.4302H52.4023C52.5274 22.4303 52.6473 22.48 52.7357 22.5683C52.8242 22.6567 52.8739 22.7765 52.8741 22.9014V35.2802C52.8739 35.4051 52.8242 35.5249 52.7357 35.6133C52.6473 35.7016 52.5274 35.7513 52.4023 35.7514Z" fill="#0087FF"/>
<path d="M79.7385 85.477C88.4306 85.477 95.477 78.4306 95.477 69.7385C95.477 61.0464 88.4306 54 79.7385 54C71.0464 54 64 61.0464 64 69.7385C64 78.4306 71.0464 85.477 79.7385 85.477Z" fill="#0087FF"/>
<path d="M79.7367 77.4298C79.2141 77.4292 78.7131 77.2213 78.3436 76.8518C77.9741 76.4823 77.7662 75.9813 77.7656 75.4587V64.0541C77.7654 63.7951 77.8161 63.5386 77.9151 63.2992C78.014 63.0599 78.1591 62.8423 78.3422 62.6591C78.5252 62.4758 78.7426 62.3305 78.9819 62.2313C79.2211 62.1321 79.4776 62.0811 79.7366 62.0811C79.9956 62.0811 80.2521 62.1321 80.4914 62.2313C80.7306 62.3305 80.948 62.4758 81.1311 62.6591C81.3141 62.8423 81.4592 63.0599 81.5582 63.2992C81.6571 63.5386 81.7079 63.7951 81.7076 64.0541V75.4587C81.707 75.9813 81.4992 76.4823 81.1297 76.8518C80.7602 77.2213 80.2592 77.4292 79.7367 77.4298Z" fill="white"/>
<path d="M72.0645 69.7567C72.0651 69.2341 72.2729 68.7331 72.6424 68.3636C73.0119 67.9941 73.5129 67.7863 74.0355 67.7856H85.4401C85.6991 67.7854 85.9556 67.8361 86.195 67.9351C86.4344 68.034 86.6519 68.1791 86.8351 68.3622C87.0184 68.5452 87.1637 68.7626 87.2629 69.0019C87.3621 69.2411 87.4132 69.4976 87.4132 69.7566C87.4132 70.0156 87.3621 70.2721 87.2629 70.5114C87.1637 70.7506 87.0184 70.968 86.8351 71.1511C86.6519 71.3341 86.4344 71.4793 86.195 71.5782C85.9556 71.6771 85.6991 71.7279 85.4401 71.7276H74.0355C73.5129 71.727 73.012 71.5192 72.6424 71.1497C72.2729 70.7802 72.0651 70.2792 72.0645 69.7567Z" fill="white"/>
</svg>
